<?xml version="1.0" encoding="UTF-8"?><!DOCTYPE svg PUBLIC "-//W3C//DTD SVG 1.1//EN" "http://www.w3.org/Graphics/SVG/1.1/DTD/svg11.dtd"><svg xmlns="http://www.w3.org/2000/svg"><symbol id="icon-arrow" viewBox="0 0 512 512">
    <path d="M396.6 160l19.4 20.7L256 352 96 180.7l19.3-20.7L256 310.5z"/>
</symbol><symbol id="icon-facebook" viewBox="0 0 10 19">
    <title>
        facebook
    </title>
    <path d="M9.766.157v2.946H8.014c-.64 0-1.071.134-1.295.402-.223.268-.335.67-.335 1.205v2.11h3.27l-.435 3.303H6.384v8.471H2.97v-8.47H.123V6.82H2.97V4.387c0-1.384.387-2.457 1.161-3.22C4.904.404 5.934.023 7.222.023c1.093 0 1.941.045 2.544.134z" fill-rule="evenodd"/>
</symbol><symbol id="icon-heart" viewBox="0 0 512 512">
    <path d="M429.9 95.6c-40.4-42.1-106-42.1-146.4 0L256 124.1l-27.5-28.6c-40.5-42.1-106-42.1-146.4 0-45.5 47.3-45.5 124.1 0 171.4L256 448l173.9-181c45.5-47.3 45.5-124.1 0-171.4z"/>
</symbol><symbol id="icon-user" viewBox="0 0 48 48">
    <path d="M24.042 30c-7.145 0-12.958-6.729-12.958-15S16.896 0 24.042 0C31.187 0 37 6.729 37 15s-5.813 15-12.958 15zm0-28C18 2 13.084 7.832 13.084 15S18 28 24.042 28 35 22.168 35 15 30.084 2 24.042 2z"/>
    <path d="M47.982 48H.019v-6.771a7.013 7.013 0 0 1 4.645-6.592L17 31.238v-4.155h2v5.679l-13.735 3.78c-1.913.687-3.247 2.579-3.247 4.687V46h43.964v-4.771c0-2.107-1.333-4-3.319-4.709L29 32.762v-5.637h2v4.113l12.265 3.376c2.85 1.015 4.717 3.663 4.717 6.614V48z"/>
    <path d="M32.799 13.218c-.068 0-.136-.001-.205-.004-2.251-.082-4.875-1.506-6.542-3.431-1.166 1.486-2.831 2.442-4.892 2.792-3.605.619-7.728-.765-8.982-1.982l1.393-1.436c.604.587 4.035 1.994 7.254 1.446 1.998-.339 3.438-1.366 4.28-3.051l.836-1.671.927 1.622c1.107 1.938 3.763 3.637 5.8 3.712.906.024 1.55-.247 1.961-.857l1.659 1.117c-.76 1.129-1.993 1.743-3.489 1.743z"/>
</symbol></svg>